<svg width="70" height="71" viewBox="0 0 70 71" fill="none" xmlns="http://www.w3.org/2000/svg">
<path fill-rule="evenodd" clip-rule="evenodd" d="M54.25 0C55.3367 0 56.4085 0.282846 57.3805 0.826139C58.3525 1.36943 59.198 2.15825 59.85 3.13012L69.258 17.1531C69.7302 17.8447 69.9816 18.6932 69.972 19.5632H70V23.4759C70.0034 27.2889 68.7585 30.9714 66.5 33.8288V62.6024C66.5 64.6778 65.7625 66.6682 64.4497 68.1357C63.137 69.6032 61.3565 70.4277 59.5 70.4277H10.5C8.6435 70.4277 6.86302 69.6032 5.55027 68.1357C4.23751 66.6682 3.50001 64.6778 3.50001 62.6024V33.8288C1.24012 30.9724 -0.00505146 27.2892 1.54029e-05 23.4759V19.5632H0.028015C0.0184003 18.6932 0.269774 17.8447 0.742015 17.1531L10.15 3.13012C10.802 2.15825 11.6475 1.36943 12.6195 0.826139C13.5915 0.282846 14.6633 0 15.75 0H54.25ZM45.5 33.8288C44.1876 35.4959 42.5721 36.8308 40.7614 37.7444C38.9507 38.6579 36.9866 39.1291 35 39.1265C33.0135 39.1291 31.0493 38.6579 29.2386 37.7444C27.4279 36.8308 25.8124 35.4959 24.5 33.8288C22.8904 35.875 20.8297 37.4146 18.5229 38.2946C16.216 39.1746 13.7433 39.3643 11.3505 38.8448L10.5 38.6335V62.6024H59.5V38.6335L58.6495 38.8448C56.2564 39.3638 53.7835 39.1735 51.4766 38.2929C49.1697 37.4122 47.1092 35.8757 45.5 33.8288ZM63 23.4759H49C48.9919 25.5065 49.6902 27.4611 50.9473 28.9268C52.2045 30.3925 53.9221 31.2545 55.7373 31.3307C57.5525 31.4069 59.3231 30.6913 60.675 29.3351C62.027 27.9789 62.8544 26.0884 62.9825 24.0628L63 23.4759ZM42 23.4759H28C27.9919 25.5065 28.6902 27.4611 29.9473 28.9268C31.2045 30.3925 32.9221 31.2545 34.7373 31.3307C36.5525 31.4069 38.3231 30.6913 39.675 29.3351C41.027 27.9789 41.8544 26.0884 41.9825 24.0628L42 23.4759ZM21 23.4759H7.00001C6.99188 25.5065 7.69017 27.4611 8.94734 28.9268C10.2045 30.3925 11.9221 31.2545 13.7373 31.3307C15.5525 31.4069 17.3231 30.6913 18.675 29.3351C20.027 27.9789 20.8544 26.0884 20.9825 24.0628L21 23.4759ZM54.25 7.8253H15.75L10.5 15.6506H59.5L54.25 7.8253Z" fill="#0153DF"/>
</svg>
