<svg width="70" height="71" viewBox="0 0 70 71" fill="none" xmlns="http://www.w3.org/2000/svg">
<path d="M67.985 23.3873C67.1008 24.1776 65.7528 24.138 64.9166 23.2971L46.6959 4.97637C45.872 4.14798 45.872 2.80968 46.6959 1.98129V1.98129C48.0392 0.630567 49.7038 -0.0295253 51.6896 0.00101274C53.6754 0.0315508 55.34 0.721007 56.6834 2.06938L67.985 13.4331C69.3283 14.7838 70 16.4434 70 18.4119C70 20.3805 69.3283 22.0389 67.985 23.3873V23.3873ZM23.2165 68.4016C21.8732 69.7523 20.2238 70.4277 18.2683 70.4277C16.3129 70.4277 14.6623 69.7523 13.3166 68.4016L2.01502 57.0379C0.671672 55.6872 0 54.0287 0 52.0626C0 50.0964 0.671672 48.4368 2.01502 47.0837V47.0837C2.78794 46.3065 4.0456 46.3065 4.81852 47.0837L23.2165 65.5827C23.9919 66.3624 23.9919 67.6219 23.2165 68.4016V68.4016ZM35.9199 65.9351C35.219 66.6398 34.4013 66.9922 33.4668 66.9922C32.5323 66.9922 31.7146 66.6398 31.0138 65.9351L4.46808 39.2436C3.76721 38.5389 3.41677 37.7167 3.41677 36.7771C3.41677 35.8374 3.76721 35.0153 4.46808 34.3105L9.46183 29.2013C10.1627 28.4966 10.9956 28.1442 11.9605 28.1442C12.9253 28.1442 13.757 28.4966 14.4556 29.2013V29.2013C17.4989 32.2614 22.451 32.2614 25.4944 29.2013L28.9987 25.6777C32.0519 22.6077 32.0519 17.6482 28.9987 14.5782V14.5782C28.2979 13.8735 27.9474 13.0513 27.9474 12.1117C27.9474 11.1721 28.2979 10.3499 28.9987 9.64517L33.9925 4.53592C34.6934 3.83119 35.5262 3.47883 36.4911 3.47883C37.456 3.47883 38.2877 3.83119 38.9862 4.53592L65.5319 31.2274C66.2328 31.9321 66.5832 32.7695 66.5832 33.7397C66.5832 34.7099 66.2328 35.5462 65.5319 36.2485L60.4506 41.2697C59.7497 41.9744 58.932 42.3268 57.9975 42.3268C57.063 42.3268 56.2453 41.9744 55.5444 41.2697V41.2697C52.5011 38.2096 47.549 38.2096 44.5056 41.2697L41.0013 44.7933C37.9481 47.8632 37.9481 52.8228 41.0013 55.8927V55.8927C41.7021 56.5975 42.0526 57.4337 42.0526 58.4016C42.0526 59.3694 41.7021 60.2068 41.0013 60.9139L35.9199 65.9351Z" fill="#0153DF"/>
</svg>
